<svg width="24" height="24" viewBox="0 0 24 24" fill="none" xmlns="http://www.w3.org/2000/svg">
<path fill-rule="evenodd" clip-rule="evenodd" d="M1 12C1 5.92487 5.92487 1 12 1C18.0751 1 23 5.92487 23 12C23 18.0751 18.0751 23 12 23C5.92487 23 1 18.0751 1 12ZM8.65908 20.3595C7.81663 20.0225 7.037 19.5619 6.34264 19C6.78668 18.6406 7.26546 18.3227 7.77317 18.0521C7.91314 18.5453 8.07028 19.0104 8.24309 19.4425C8.37099 19.7622 8.50959 20.0692 8.65908 20.3595ZM9.64345 17.3115C9.77872 17.8147 9.93201 18.2796 10.1 18.6997C10.4341 19.5348 10.8068 20.1435 11.1696 20.527C11.5303 20.9085 11.8113 21 12 21C12.1887 21 12.4697 20.9085 12.8304 20.527C13.1932 20.1435 13.5659 19.5348 13.9 18.6997C14.068 18.2796 14.2213 17.8147 14.3566 17.3115C13.6055 17.1083 12.8155 17 12 17C11.1845 17 10.3945 17.1083 9.64345 17.3115ZM14.7596 15.3492C13.8777 15.1213 12.9529 15 12 15C11.0471 15 10.1223 15.1213 9.24041 15.3492C9.13007 14.6103 9.05461 13.8229 9.02056 13H14.9794C14.9454 13.8229 14.8699 14.6103 14.7596 15.3492ZM16.2268 18.052C16.0869 18.5453 15.9297 19.0104 15.7569 19.4425C15.629 19.7622 15.4904 20.0692 15.3409 20.3595C16.1834 20.0225 16.963 19.5618 17.6574 19C17.2133 18.6406 16.7346 18.3227 16.2268 18.052ZM19.0686 17.5715C18.3444 16.9636 17.5405 16.4472 16.6749 16.0402C16.8359 15.0833 16.9405 14.0617 16.981 13H20.9451C20.7555 14.7153 20.0838 16.2853 19.0686 17.5715ZM20.9451 11C20.7555 9.28473 20.0838 7.71475 19.0686 6.4285C18.3444 7.03637 17.5405 7.55279 16.6749 7.95979C16.8359 8.91667 16.9405 9.93833 16.981 11H20.9451ZM14.9794 11C14.9454 10.1771 14.8699 9.38966 14.7596 8.65078C13.8777 8.8787 12.9529 9 12 9C11.0471 9 10.1223 8.8787 9.24041 8.65077C9.13007 9.38966 9.05461 10.1771 9.02056 11H14.9794ZM7.019 11C7.05954 9.93832 7.16415 8.91665 7.32514 7.95977C6.45949 7.55277 5.65558 7.03635 4.93142 6.42848C3.91619 7.71473 3.24454 9.28472 3.05493 11H7.019ZM3.05493 13C3.24454 14.7153 3.9162 16.2853 4.93142 17.5715C5.65558 16.9637 6.45949 16.4472 7.32514 16.0402C7.16415 15.0833 7.05954 14.0617 7.019 13H3.05493ZM6.34264 5.00002C6.78668 5.35941 7.26546 5.67733 7.77317 5.94795C7.91314 5.45466 8.07028 4.98956 8.24309 4.55754C8.37099 4.23779 8.50959 3.93083 8.65908 3.64049C7.81662 3.97749 7.037 4.43814 6.34264 5.00002ZM12 3C11.8113 3 11.5303 3.0915 11.1696 3.47296C10.8068 3.85653 10.4341 4.46523 10.1 5.30032C9.93201 5.72042 9.77872 6.18533 9.64345 6.68853C10.3945 6.89167 11.1845 7 12 7C12.8155 7 13.6055 6.89167 14.3566 6.68854C14.2213 6.18533 14.068 5.72042 13.9 5.30032C13.5659 4.46523 13.1932 3.85653 12.8304 3.47296C12.4697 3.0915 12.1887 3 12 3ZM16.2268 5.94797C16.7346 5.67735 17.2133 5.35943 17.6574 5.00004C16.963 4.43816 16.1834 3.97749 15.3409 3.64049C15.4904 3.93083 15.629 4.23779 15.7569 4.55754C15.9297 4.98957 16.0869 5.45467 16.2268 5.94797Z" fill="#252525"/>
</svg>
