<svg width="24" height="24" viewBox="0 0 24 24" fill="none" xmlns="http://www.w3.org/2000/svg">
<path d="M11.9993 6.50248C8.95911 6.50248 6.50554 8.95605 6.50554 11.9962C6.50554 15.0364 8.95911 17.49 11.9993 17.49C15.0395 17.49 17.493 15.0364 17.493 11.9962C17.493 8.95605 15.0395 6.50248 11.9993 6.50248ZM11.9993 15.5668C10.0332 15.5668 8.42875 13.9623 8.42875 11.9962C8.42875 10.0302 10.0332 8.4257 11.9993 8.4257C13.9654 8.4257 15.5698 10.0302 15.5698 11.9962C15.5698 13.9623 13.9654 15.5668 11.9993 15.5668ZM17.718 4.99712C17.0082 4.99712 16.435 5.57034 16.435 6.28016C16.435 6.98998 17.0082 7.5632 17.718 7.5632C18.4279 7.5632 19.0011 6.99266 19.0011 6.28016C19.0013 6.11161 18.9682 5.94467 18.9038 5.78891C18.8394 5.63315 18.7449 5.49163 18.6258 5.37244C18.5066 5.25326 18.365 5.15876 18.2093 5.09436C18.0535 5.02995 17.8866 4.99691 17.718 4.99712ZM22.7082 11.9962C22.7082 10.5177 22.7216 9.05248 22.6386 7.57659C22.5555 5.8623 22.1645 4.34087 20.9109 3.0873C19.6546 1.83105 18.1359 1.44266 16.4216 1.35962C14.943 1.27659 13.4779 1.28998 12.002 1.28998C10.5234 1.28998 9.05822 1.27659 7.58233 1.35962C5.86804 1.44266 4.34661 1.83373 3.09304 3.0873C1.83679 4.34355 1.4484 5.8623 1.36536 7.57659C1.28233 9.05516 1.29572 10.5203 1.29572 11.9962C1.29572 13.4721 1.28233 14.94 1.36536 16.4159C1.4484 18.1302 1.83947 19.6516 3.09304 20.9052C4.34929 22.1614 5.86804 22.5498 7.58233 22.6328C9.0609 22.7159 10.5261 22.7025 12.002 22.7025C13.4805 22.7025 14.9457 22.7159 16.4216 22.6328C18.1359 22.5498 19.6573 22.1587 20.9109 20.9052C22.1672 19.6489 22.5555 18.1302 22.6386 16.4159C22.7243 14.94 22.7082 13.4748 22.7082 11.9962ZM20.3511 18.3123C20.1555 18.7998 19.9198 19.1641 19.5421 19.5391C19.1645 19.9168 18.8029 20.1525 18.3154 20.348C16.9064 20.9078 13.5609 20.7819 11.9993 20.7819C10.4377 20.7819 7.08947 20.9078 5.68054 20.3507C5.19304 20.1552 4.82875 19.9194 4.45375 19.5418C4.07608 19.1641 3.84036 18.8025 3.64483 18.315C3.08768 16.9034 3.21358 13.5578 3.21358 11.9962C3.21358 10.4346 3.08768 7.08641 3.64483 5.67748C3.84036 5.18998 4.07608 4.8257 4.45375 4.4507C4.83143 4.0757 5.19304 3.8373 5.68054 3.64177C7.08947 3.08462 10.4377 3.21052 11.9993 3.21052C13.5609 3.21052 16.9091 3.08462 18.318 3.64177C18.8055 3.8373 19.1698 4.07302 19.5448 4.4507C19.9225 4.82837 20.1582 5.18998 20.3538 5.67748C20.9109 7.08641 20.785 10.4346 20.785 11.9962C20.785 13.5578 20.9109 16.9034 20.3511 18.3123Z" fill="#F1F1F1"/>
</svg>
