<svg width="24" height="24" viewBox="0 0 24 24" fill="none" xmlns="http://www.w3.org/2000/svg">
<g clip-path="url(#clip0)">
<path d="M23.1429 2.56653H0.857143C0.383036 2.56653 0 2.94956 0 3.42367V20.5665C0 21.0406 0.383036 21.4237 0.857143 21.4237H23.1429C23.617 21.4237 24 21.0406 24 20.5665V3.42367C24 2.94956 23.617 2.56653 23.1429 2.56653ZM22.0714 5.53439V19.4951H1.92857V5.53439L1.18929 4.95849L2.24196 3.60581L3.38839 4.49778H20.6143L21.7607 3.60581L22.8134 4.95849L22.0714 5.53439ZM20.6143 4.4951L12 11.1915L3.38571 4.4951L2.23929 3.60314L1.18661 4.95581L1.92589 5.53171L11.0759 12.646C11.339 12.8504 11.6628 12.9614 11.996 12.9614C12.3292 12.9614 12.6529 12.8504 12.9161 12.646L22.0714 5.53439L22.8107 4.95849L21.758 3.60581L20.6143 4.4951Z" fill="#F1F1F1"/>
</g>
<defs>
<clipPath id="clip0">
<rect width="24" height="24" fill="white"/>
</clipPath>
</defs>
</svg>
