<svg width="24" height="24" viewBox="0 0 24 24" fill="none" xmlns="http://www.w3.org/2000/svg">
<path d="M8.49811 2.84293H5.96176C3.98646 2.84293 2.57014 4.7128 3.20239 6.58662C4.46608 10.3317 6.16543 13.6495 8.37961 15.8637C10.5938 18.0779 13.9116 19.7773 17.6568 21.0409C19.5305 21.6732 21.4004 20.2569 21.4004 18.2816V15.7448C21.4004 15.0187 21.0069 14.3497 20.3723 13.9968L18.1626 12.7683L18.0023 12.6884C17.4593 12.4472 16.8332 12.459 16.2962 12.7275L14.275 13.737L14.227 13.722C14.1471 13.696 14.0574 13.6647 13.9593 13.6276C13.4567 13.4378 12.9533 13.1727 12.4871 12.8232C12.2848 12.6716 12.0936 12.5067 11.9151 12.3282C11.7344 12.1475 11.5675 11.9536 11.4141 11.7483C11.0657 11.2822 10.8008 10.7789 10.6105 10.2763L10.5157 10.0084L10.5 9.95901L11.5101 7.94077C11.8053 7.35054 11.7902 6.65264 11.4699 6.07561L10.2467 3.87219C9.89402 3.23694 9.22463 2.84293 8.49811 2.84293ZM5.96176 4.84293H8.49813L9.72132 7.04629L8.54288 9.40321C8.44425 9.60048 8.4136 9.82484 8.45571 10.0413C8.6034 10.8006 9.00881 11.8709 9.81205 12.9456C10.0217 13.2261 10.251 13.4925 10.5009 13.7424C10.7478 13.9893 11.0108 14.216 11.2874 14.4234C12.3644 15.2309 13.4373 15.6362 14.1987 15.7822C14.4144 15.8236 14.6378 15.7928 14.8343 15.6945L17.1907 14.5163L19.4004 15.7448V18.2816C19.4004 18.9141 18.8484 19.3322 18.2962 19.1459C14.8183 17.9724 11.7401 16.3958 9.79383 14.4495C7.84757 12.5033 6.27092 9.42499 5.09742 5.9472C4.9111 5.39499 5.32926 4.84293 5.96176 4.84293Z" fill="#ADADAD"/>
</svg>
