<svg width="24" height="24" viewBox="0 0 24 24" fill="none" xmlns="http://www.w3.org/2000/svg">
<path d="M13.4117 4.44921V19.7948H15.0189L15.6939 21.7073L18.5438 19.7948H22.0662V4.44921H13.4117ZM20.0465 17.7617H18.4421L16.4305 19.1117L15.9537 17.7617H15.4715V6.54386H20.0438V17.7617H20.0465ZM12.3778 11.3278H8.82063C8.87688 10.1251 8.93581 8.53404 8.99742 6.69654H12.5037L12.501 6.47957C12.501 6.4635 12.4956 6.08582 12.4394 5.70011C12.3831 5.29832 12.2626 4.76529 11.8769 4.76529H5.99474C6.1126 4.2135 6.41528 2.89832 6.78224 2.25279L6.95367 1.95279L6.60814 1.93404C6.58671 1.93404 6.08313 1.90993 5.49921 2.21796C4.54296 2.72689 4.11438 3.72868 3.92688 4.47868C3.43403 6.43671 2.73224 7.79743 2.43492 8.37868C2.34653 8.55011 2.29296 8.65189 2.26885 8.72154C2.22063 8.85279 2.24742 8.98404 2.34385 9.06975C2.6251 9.32421 3.36706 8.99207 3.3751 8.98939C3.39117 8.98136 3.40992 8.97332 3.43403 8.96261C3.80635 8.79386 4.90992 8.29296 5.30367 6.69921H6.82242C6.84117 7.56171 6.90546 10.4064 6.9001 11.3305H3.12331L3.06706 11.3706C2.44831 11.8233 2.2501 13.0635 2.24206 13.1171L2.20456 13.3635H6.67778C6.34831 15.4608 5.96796 16.401 5.76706 16.776C5.66796 16.9635 5.57153 17.151 5.48046 17.3331C4.90992 18.4635 4.31796 19.6314 2.09742 21.4474C2.00099 21.5224 1.90992 21.6617 1.96885 21.8144C2.03313 21.9831 2.21796 22.0581 2.62778 22.0581C2.77242 22.0581 2.94385 22.0501 3.14742 22.0314C4.48403 21.9135 5.84742 21.5492 6.76617 19.6849C7.22153 18.7447 7.61528 17.7644 7.94206 16.768L11.5983 21.0537L11.7322 20.7323C11.7537 20.6814 12.2412 19.4921 11.8688 18.1635L11.8555 18.1153L8.95992 14.8206L8.37064 15.2653C8.54206 14.5662 8.65456 13.9287 8.70546 13.3608H12.9564V13.1465C12.9564 12.0724 12.4608 11.4349 12.4421 11.4081L12.3778 11.3278Z" fill="#F1F1F1"/>
</svg>
