<svg width="22" height="22" viewBox="0 0 22 22" fill="none" xmlns="http://www.w3.org/2000/svg">
<g clip-path="url(#clip0)">
<path d="M21.2143 2.35266H0.785714C0.351116 2.35266 0 2.70378 0 3.13838V18.8527C0 19.2873 0.351116 19.6384 0.785714 19.6384H21.2143C21.6489 19.6384 22 19.2873 22 18.8527V3.13838C22 2.70378 21.6489 2.35266 21.2143 2.35266ZM20.2321 5.0732V17.8705H1.76786V5.0732L1.09018 4.5453L2.05513 3.30534L3.10603 4.12297H18.8964L19.9473 3.30534L20.9123 4.5453L20.2321 5.0732V5.0732ZM18.8964 4.12052L11 10.2589L3.10357 4.12052L2.05268 3.30288L1.08772 4.54284L1.7654 5.07074L10.1529 11.5922C10.3941 11.7796 10.6909 11.8813 10.9963 11.8813C11.3018 11.8813 11.5985 11.7796 11.8397 11.5922L20.2321 5.0732L20.9098 4.5453L19.9449 3.30534L18.8964 4.12052Z" fill="#ADADAD"/>
</g>
<defs>
<clipPath id="clip0">
<rect width="22" height="22" fill="white"/>
</clipPath>
</defs>
</svg>
