<svg width="24" height="24" viewBox="0 0 24 24" fill="none" xmlns="http://www.w3.org/2000/svg">
<path fill-rule="evenodd" clip-rule="evenodd" d="M19.3036 4.44818C18.8185 3.80768 18.2363 3.30141 17.5484 2.96428C16.7359 2.56603 15.8382 2.43437 14.8899 2.52964C13.3289 2.68646 12.2324 3.5636 11.6124 4.83569C11.111 5.8643 10.9278 7.1258 10.9659 8.45926C9.75637 8.87003 8.68929 8.60043 7.72113 7.98236C6.54654 7.23251 5.55528 5.97908 4.8496 4.82883C4.63995 4.4871 4.24648 4.30362 3.84994 4.36267C3.4534 4.42172 3.13046 4.71189 3.02947 5.09987C2.52785 7.02709 1.97286 9.57449 3.06399 12.409C3.65006 13.9314 4.82661 15.2003 6.47592 16.2536C4.88854 16.9057 3.63945 17.0802 2.68735 16.8987C2.20463 16.8067 1.7266 17.0791 1.55963 17.5413C1.39266 18.0035 1.58624 18.5185 2.0163 18.7562C2.03916 18.7689 2.06562 18.7836 2.09555 18.8002C2.69694 19.135 4.70099 20.2505 7.18957 20.9362C9.77598 21.6487 13.104 21.9569 15.94 20.185C21.1571 16.9253 21.1196 11.3949 21.1023 8.82997C21.1019 8.7838 21.1016 8.73858 21.1014 8.69437C21.1597 8.59916 21.2324 8.49361 21.3277 8.3577L21.3454 8.33238C21.4913 8.12445 21.6798 7.85584 21.8532 7.52732C22.2335 6.80714 22.5001 5.88537 22.5001 4.47186C22.5001 4.0746 22.265 3.71501 21.901 3.55574C21.5371 3.39648 21.1134 3.46775 20.8216 3.73731C20.2079 4.30423 19.7183 4.47495 19.3036 4.44818ZM16.6682 4.76016C16.2381 4.54936 15.7235 4.45596 15.0898 4.51962C14.2778 4.6012 13.7536 5.00736 13.4102 5.71198C13.0386 6.47432 12.8806 7.60547 13.0005 9.01879C13.035 9.42512 12.8193 9.81167 12.4554 9.9957C10.2516 11.1101 8.24213 10.6878 6.64494 9.66813C5.83297 9.14977 5.12099 8.4762 4.51597 7.7708C4.35564 9.00952 4.39965 10.3115 4.93047 11.6905C5.44716 13.0327 6.74188 14.3013 9.08919 15.4077C9.43021 15.5684 9.65185 15.9073 9.66244 16.2842C9.67304 16.661 9.47079 17.0118 9.13934 17.1914C8.10134 17.754 7.10542 18.196 6.15812 18.4982C6.6457 18.6812 7.17059 18.8564 7.7208 19.008C10.1072 19.6655 12.7519 19.8186 14.8802 18.4889C19.1249 15.8368 19.1099 11.3834 19.1012 8.77521C19.1008 8.66081 19.1004 8.54996 19.1004 8.44296C19.1004 8.2939 19.1338 8.14671 19.198 8.01219C19.3488 7.69618 19.5364 7.42874 19.6822 7.22076L19.6901 7.20956C19.8465 6.98638 19.9715 6.8077 20.0846 6.59347C20.1233 6.52032 20.1619 6.4402 20.1993 6.35089C19.6328 6.49412 19.0407 6.49194 18.4314 6.30992C18.2055 6.24244 18.0107 6.09733 17.8814 5.9002C17.5094 5.33294 17.1003 4.97196 16.6682 4.76016Z" fill="#F1F1F1"/>
</svg>
